<svg width="975" height="250" viewBox="0 0 975 250" fill="none" xmlns="http://www.w3.org/2000/svg">
<path d="M594.57 226.189C891.076 267.606 975 249.47 975 180.472C975 139.449 975 -93.1407 829.863 43C800.18 70.8434 773.814 67.16 678 67.16C584.569 67.16 531.953 4.09332 480 112.2C478.992 114.297 490.351 96.6778 480 95.832C424.723 91.3149 260.5 19 153.417 46.3115C123.04 54.0592 87.861 34.3069 58.591 34.7348C25.2623 35.2221 0 41.6816 0 55.5276C0 89.4056 25.4855 102.178 85.5766 204.137C145.668 306.095 405.982 199.847 594.57 226.189Z" fill="url(#paint0_linear)"/>
<defs>
<linearGradient id="paint0_linear" x1="0" y1="0.717621" x2="0" y2="249.324" gradientUnits="userSpaceOnUse">
<stop stop-color="#21AACB"/>
<stop offset="1" stop-color="#5F56D9"/>
</linearGradient>
</defs>
</svg>
