<svg width="34" height="25" viewBox="0 0 34 25" fill="none" xmlns="http://www.w3.org/2000/svg">
<path fill-rule="evenodd" clip-rule="evenodd" d="M25.7142 8.5H27.9999V22.2143H25.7142V8.5Z" fill="#5A6470"/>
<path fill-rule="evenodd" clip-rule="evenodd" d="M22.8571 8.5V5.07143H11.4286V8.5L7.99998 10.7857H4.57141V19.9286H7.99998L11.4286 22.2143H25.7143V8.5H22.8571Z" fill="#CFDFE8"/>
<path fill-rule="evenodd" clip-rule="evenodd" d="M0 7.92857H2.28571V22.2143H0V7.92857Z" fill="#2680A8"/>
<path fill-rule="evenodd" clip-rule="evenodd" d="M2.28577 13.0714H4.57148V17.6429H2.28577V13.0714Z" fill="#5A6470"/>
<path fill-rule="evenodd" clip-rule="evenodd" d="M32.5715 20.5H30.2858V10.2143H32.5715L33.1429 11.9286V18.7857L32.5715 20.5Z" fill="#5A6470"/>
<path fill-rule="evenodd" clip-rule="evenodd" d="M28 13.6429H30.2857V17.0714H28V13.6429Z" fill="#2680A8"/>
<path fill-rule="evenodd" clip-rule="evenodd" d="M16 2.78571H18.2857V5.07143H16V2.78571Z" fill="#2680A8"/>
<path fill-rule="evenodd" clip-rule="evenodd" d="M8 0.5H26.2857V2.78571H8V0.5Z" fill="#5A6470"/>
<path fill-rule="evenodd" clip-rule="evenodd" d="M22.8571 9.07143H16.5714C16.2559 9.07143 16 8.81557 16 8.5C16 8.18443 16.2559 7.92857 16.5714 7.92857H22.8571C23.1727 7.92857 23.4286 8.18443 23.4286 8.5C23.4286 8.81557 23.1727 9.07143 22.8571 9.07143Z" fill="#9CA8B5"/>
<path fill-rule="evenodd" clip-rule="evenodd" d="M14.2857 9.07143H13.7143C13.3987 9.07143 13.1428 8.81557 13.1428 8.5C13.1428 8.18443 13.3987 7.92857 13.7143 7.92857H14.2857C14.6012 7.92857 14.8571 8.18443 14.8571 8.5C14.8571 8.81557 14.6012 9.07143 14.2857 9.07143Z" fill="#9CA8B5"/>
<path fill-rule="evenodd" clip-rule="evenodd" d="M8.00002 15.3571C7.68445 15.3571 7.42859 15.1013 7.42859 14.7857V10.7857C7.42859 10.4701 7.68445 10.2143 8.00002 10.2143C8.31559 10.2143 8.57145 10.4701 8.57145 10.7857V14.7857C8.57145 15.1013 8.31559 15.3571 8.00002 15.3571Z" fill="#9CA8B5"/>
<path fill-rule="evenodd" clip-rule="evenodd" d="M8.00002 18.2143C7.68445 18.2143 7.42859 17.9584 7.42859 17.6429V17.0714C7.42859 16.7559 7.68445 16.5 8.00002 16.5C8.31559 16.5 8.57145 16.7559 8.57145 17.0714V17.6429C8.57145 17.9584 8.31559 18.2143 8.00002 18.2143Z" fill="#9CA8B5"/>
<path fill-rule="evenodd" clip-rule="evenodd" d="M23.4286 12.5H10.2858C9.97021 12.5 9.71436 12.2441 9.71436 11.9286C9.71436 11.613 9.97021 11.3571 10.2858 11.3571H23.4286C23.7442 11.3571 24.0001 11.613 24.0001 11.9286C24.0001 12.2441 23.7442 12.5 23.4286 12.5Z" fill="#9CA8B5"/>
<path fill-rule="evenodd" clip-rule="evenodd" d="M23.4286 14.7857H10.2858C9.97021 14.7857 9.71436 14.5299 9.71436 14.2143C9.71436 13.8987 9.97021 13.6429 10.2858 13.6429H23.4286C23.7442 13.6429 24.0001 13.8987 24.0001 14.2143C24.0001 14.5299 23.7442 14.7857 23.4286 14.7857Z" fill="#9CA8B5"/>
<path fill-rule="evenodd" clip-rule="evenodd" d="M23.4286 17.0714H10.2858C9.97021 17.0714 9.71436 16.8156 9.71436 16.5C9.71436 16.1844 9.97021 15.9286 10.2858 15.9286H23.4286C23.7442 15.9286 24.0001 16.1844 24.0001 16.5C24.0001 16.8156 23.7442 17.0714 23.4286 17.0714Z" fill="#9CA8B5"/>
<path fill-rule="evenodd" clip-rule="evenodd" d="M23.4286 19.3571H10.2858C9.97021 19.3571 9.71436 19.1013 9.71436 18.7857C9.71436 18.4701 9.97021 18.2143 10.2858 18.2143H23.4286C23.7442 18.2143 24.0001 18.4701 24.0001 18.7857C24.0001 19.1013 23.7442 19.3571 23.4286 19.3571Z" fill="#9CA8B5"/>
<path fill-rule="evenodd" clip-rule="evenodd" d="M13.1428 22.2143H21.1428V24.5H13.1428V22.2143Z" fill="#5A6470"/>
</svg>
