<svg width="491" height="500" viewBox="0 0 491 500" fill="none" xmlns="http://www.w3.org/2000/svg">
<path d="M241 398C323.29 398 390 331.29 390 249C390 166.71 323.29 100 241 100C158.71 100 92 166.71 92 249C92 331.29 158.71 398 241 398Z" stroke="#D2D2D2" stroke-dasharray="5"/>
<path d="M241 499C378.519 499 490 387.519 490 250C490 112.481 378.519 1 241 1C103.481 1 -8 112.481 -8 250C-8 387.519 103.481 499 241 499Z" stroke="#E4F0FE" stroke-dasharray="13"/>
<path d="M241.5 437C345.053 437 429 353.053 429 249.5C429 145.947 345.053 62 241.5 62C137.947 62 54 145.947 54 249.5C54 353.053 137.947 437 241.5 437Z" stroke="#EAF4FF"/>
</svg>
