<svg width="518" height="517" viewBox="0 0 518 517" fill="none" xmlns="http://www.w3.org/2000/svg">
<path d="M259 411.5C344.052 411.5 413 342.552 413 257.5C413 172.448 344.052 103.5 259 103.5C173.948 103.5 105 172.448 105 257.5C105 342.552 173.948 411.5 259 411.5Z" stroke="#A8A6A6" stroke-dasharray="5"/>
<path d="M259 516.5C401.489 516.5 517 400.989 517 258.5C517 116.011 401.489 0.5 259 0.5C116.511 0.5 1 116.011 1 258.5C1 400.989 116.511 516.5 259 516.5Z" stroke="#B1D3F9" stroke-dasharray="13"/>
<path d="M259.5 452.5C366.919 452.5 454 365.419 454 258C454 150.581 366.919 63.5 259.5 63.5C152.081 63.5 65 150.581 65 258C65 365.419 152.081 452.5 259.5 452.5Z" stroke="#CFE5FF"/>
</svg>
